<svg width="20" height="21" viewBox="0 0 20 21" fill="none" xmlns="http://www.w3.org/2000/svg">
<path d="M11.6667 4.92835C11.1417 4.77002 10.575 4.68669 10 4.68669C6.78333 4.68669 4.16667 7.30335 4.16667 10.52C4.16667 13.7367 6.78333 16.3534 10 16.3534C13.2167 16.3534 15.8333 13.7367 15.8333 10.52C15.8333 9.94502 15.75 9.37835 15.5917 8.85335H16.4583C16.6 9.38669 16.6667 9.94502 16.6667 10.52C16.6667 14.195 13.675 17.1867 10 17.1867C6.325 17.1867 3.33333 14.195 3.33333 10.52C3.33333 6.84502 6.325 3.85335 10 3.85335C10.575 3.85335 11.1333 3.92835 11.6667 4.06169V4.92835ZM9.5 8.07002L10.3667 7.20335C10.25 7.18669 10.125 7.18669 10 7.18669C8.15833 7.18669 6.66667 8.67835 6.66667 10.52C6.66667 12.3617 8.15833 13.8534 10 13.8534C11.8417 13.8534 13.3333 12.3617 13.3333 10.52C13.3333 10.395 13.3333 10.27 13.3167 10.1534L12.45 11.02C12.2167 12.1617 11.2083 13.02 10 13.02C8.625 13.02 7.5 11.895 7.5 10.52C7.5 9.31169 8.35833 8.30335 9.5 8.07002ZM18.8083 7.99502C19.0417 8.79502 19.1667 9.64502 19.1667 10.52C19.1667 15.5784 15.0583 19.6867 10 19.6867C4.94167 19.6867 0.833333 15.5784 0.833333 10.52C0.833333 5.46169 4.94167 1.35335 10 1.35335C10.875 1.35335 11.725 1.47835 12.525 1.71169L13.1833 1.04502C12.1833 0.703353 11.1083 0.52002 9.99167 0.52002C4.48333 0.52002 0 5.00335 0 10.52C0 16.0367 4.48333 20.52 10 20.52C15.5167 20.52 20 16.0367 20 10.52C20 9.40335 19.8167 8.33669 19.4833 7.33669L18.8167 7.99502H18.8083ZM20 3.85335V4.44502L17.2583 7.18669H13.925L10.3 10.8117L9.70833 10.22L13.3333 6.59502V3.26169L16.0417 0.52002H16.6667V3.85335H20ZM18.6083 4.68669H15.8333V1.92002L14.1667 3.61169V6.35335H16.9083L18.6 4.68669H18.6083Z" fill="#749874"/>
</svg>
