<svg width="20" height="20" viewBox="0 0 20 20" fill="none" xmlns="http://www.w3.org/2000/svg">
<path d="M11.2492 4.16667C12.3975 4.16667 13.3325 3.2325 13.3325 2.08333C13.3325 0.934167 12.3975 0 11.2492 0C10.1008 0 9.16583 0.934167 9.16583 2.08333C9.16583 3.2325 10.1008 4.16667 11.2492 4.16667ZM11.2492 0.833333C11.9383 0.833333 12.4992 1.39417 12.4992 2.08333C12.4992 2.7725 11.9383 3.33333 11.2492 3.33333C10.56 3.33333 9.99917 2.7725 9.99917 2.08333C9.99917 1.39417 10.56 0.833333 11.2492 0.833333ZM2.91583 8.33333C4.06417 8.33333 4.99917 7.39917 4.99917 6.25C4.99917 5.10083 4.06417 4.16667 2.91583 4.16667C1.7675 4.16667 0.8325 5.10083 0.8325 6.25C0.8325 7.39917 1.7675 8.33333 2.91583 8.33333ZM2.91583 5C3.605 5 4.16583 5.56083 4.16583 6.25C4.16583 6.93917 3.605 7.5 2.91583 7.5C2.22667 7.5 1.66583 6.93917 1.66583 6.25C1.66583 5.56083 2.22667 5 2.91583 5ZM14.9992 14.0067V10.8333H13.3325V5.83333H16.6658V4.21333L19.9608 2.13583L16.6667 0H15.8325V5H11.2492C10.6392 5 10.0942 5.26833 9.7125 5.68833L9.70917 5.68417L6.94583 8.365L2.15167 9.31167C1.35083 9.62833 0.833333 10.3892 0.833333 11.25V17.6892L0 20H0.873333L1.66667 17.8758V15.8333H5.83333V20H7.825L20 11.5517V10.5367L15 14.0058L14.9992 14.0067ZM16.6658 0.993333L18.4142 2.12667L16.6658 3.22833V0.9925V0.993333ZM14.1675 14.5842L9.99917 17.4767V11.6675H14.1658V14.5842H14.1675ZM11.2492 5.83417H12.4992V10.8342H9.99917V7.08417C9.99917 6.395 10.56 5.83417 11.2492 5.83417ZM1.66583 11.25C1.66583 10.7333 1.97667 10.2767 2.38417 10.1075L4.16583 9.75833V15H1.66583V11.25ZM6.66583 19.7883V15H4.99917V9.595L7.34833 9.135L9.16583 7.3725V18.0542L6.66583 19.7883Z" fill="#749874"/>
</svg>
