<svg width="20" height="20" viewBox="0 0 20 20" fill="none" xmlns="http://www.w3.org/2000/svg">
<path d="M20 2.5V6.25C20 6.93917 19.4392 7.5 18.75 7.5H15V6.66667H18.5367C17.1708 3.1725 13.7625 0.833333 10 0.833333C4.94583 0.833333 0.833333 4.94583 0.833333 10H0C0 4.48583 4.48583 0 10 0C13.9775 0 17.59 2.39667 19.1667 6.01333V2.5H20ZM10 19.1667C6.2375 19.1667 2.82917 16.8275 1.46333 13.3333H5V12.5H1.25C0.560833 12.5 0 13.0608 0 13.75V17.5H0.833333V13.9867C2.40917 17.6033 6.0225 20 10 20C15.5142 20 20 15.5142 20 10H19.1667C19.1667 15.0542 15.0542 19.1667 10 19.1667ZM9.16667 4.16667V10.2358L13.5358 12.8575L13.9642 12.1433L10 9.765V4.16667H9.16667Z" fill="#749874"/>
</svg>
