<svg width="20" height="21" viewBox="0 0 20 21" fill="none" xmlns="http://www.w3.org/2000/svg">
<path d="M16.4433 11.9834L10.8333 17.5934V20.54H13.78L19.39 14.93C19.7833 14.5367 20 14.0134 20 13.4567C20 12.9 19.7833 12.3767 19.39 11.9834C18.6042 11.1967 17.2292 11.1967 16.4433 11.9834ZM18.8 14.34L13.4342 19.7059H11.6658V17.9375L17.0317 12.5717C17.5033 12.1 18.3275 12.1 18.7992 12.5717C19.035 12.8075 19.165 13.1217 19.165 13.4559C19.165 13.79 19.0358 14.1034 18.8 14.34ZM13.8633 12.2059H4.16667V11.3725H14.6975L13.8633 12.2059ZM17.9167 2.20671H15V0.540039H14.1667V2.20671H5.83333V0.540039H5V2.20671H2.08333C0.935 2.20671 0 3.14171 0 4.29004V20.54H9.16667V19.7067H0.833333V8.04004H19.1667V9.9517C19.46 10.0534 19.7433 10.1767 20 10.345V4.29004C20 3.14171 19.065 2.20671 17.9167 2.20671ZM0.833333 7.20671V4.29004C0.833333 3.60087 1.39417 3.04004 2.08333 3.04004H17.9167C18.6058 3.04004 19.1667 3.60087 19.1667 4.29004V7.20671H0.833333ZM4.16667 15.54H10.53L9.69667 16.3734H4.16667V15.54Z" fill="#749874"/>
</svg>
