<svg width="20" height="20" viewBox="0 0 20 20" fill="none" xmlns="http://www.w3.org/2000/svg">
<path d="M19.2042 6.67849L17.5 5.33766V1.64391H16.6667V4.68185L11.2875 0.44743C10.5308 -0.149143 9.46917 -0.149143 8.7125 0.44743L0.795833 6.67849C0.29 7.07648 0 7.67389 0 8.31885V20H20V8.31885C20 7.67472 19.71 7.07732 19.2042 6.67849ZM19.1667 19.1656H0.833333V8.31885C0.833333 7.93171 1.0075 7.57293 1.31 7.33513L9.22667 1.10491C9.6825 0.746133 10.3175 0.746133 10.7725 1.10491L18.6892 7.33597C18.9917 7.57376 19.1658 7.93254 19.1658 8.31969V19.1665L19.1667 19.1656ZM11.6667 6.65012H8.33333V9.98759H5V13.3251H8.33333V16.6625H11.6667V13.3251H15V9.98759H11.6667V6.65012ZM14.1667 10.822V12.4907H10.8333V15.8282H9.16667V12.4907H5.83333V10.822H9.16667V7.48449H10.8333V10.822H14.1667Z" fill="#749874"/>
</svg>
