<svg width="20" height="21" viewBox="0 0 20 21" fill="none" xmlns="http://www.w3.org/2000/svg">
<path d="M13.66 10.9567V11.3734H12.7509V10.9567C12.7509 10.2675 12.1391 9.70671 11.3873 9.70671H8.66C7.90818 9.70671 7.29636 10.2675 7.29636 10.9567C7.29636 11.6867 7.86636 12.3 8.65364 12.4159L11.5382 12.8409C12.7682 13.0217 13.66 13.9817 13.66 15.1234C13.66 16.2717 12.64 17.2067 11.3873 17.2067H10.4782V18.8734H9.56909V17.2067H8.66C7.40727 17.2067 6.38727 16.2717 6.38727 15.1234V14.7067H7.29636V15.1234C7.29636 15.8125 7.90818 16.3734 8.66 16.3734H11.3873C12.1391 16.3734 12.7509 15.8125 12.7509 15.1234C12.7509 14.3934 12.1809 13.78 11.3936 13.6642L8.50909 13.2392C7.27909 13.0584 6.38727 12.0984 6.38727 10.9567C6.38727 9.80837 7.40727 8.87337 8.66 8.87337H9.56909V7.20671H10.4782V8.87337H11.3873C12.64 8.87337 13.66 9.80837 13.66 10.9567ZM20 15.7484C20 18.39 17.6545 20.54 14.7727 20.54H5.22727C2.34545 20.54 0 18.39 0 15.7484C0 11.4092 3.93 5.95171 8.47091 4.90087C7.18909 4.20837 5.47818 2.91921 5.47818 0.956706V0.540039H14.5691V0.956706C14.5691 2.92171 12.8364 4.21171 11.54 4.90337C16.0755 5.96004 20 11.4125 20 15.7484ZM10.0009 4.67504C10.67 4.42087 13.2855 3.30837 13.6236 1.37337H6.42273C6.75636 3.30754 9.33818 4.41921 10.0009 4.67504ZM19.0909 15.7484C19.0909 11.3117 14.6818 5.59254 10.0236 5.54004C5.36545 5.59337 0.909091 11.3117 0.909091 15.7484C0.909091 17.9309 2.84636 19.7067 5.22727 19.7067H14.7727C17.1536 19.7067 19.0909 17.9309 19.0909 15.7484Z" fill="#749874"/>
</svg>
