<svg width="20" height="21" viewBox="0 0 20 21" fill="none" xmlns="http://www.w3.org/2000/svg">
<path d="M12.707 0.540039H2.5C1.122 0.540039 0 1.47504 0 2.62337V20.54H20V6.61754L12.707 0.540039ZM13 1.96254L18.293 6.37337H13V1.96254ZM1 19.7067V2.62337C1 1.93421 1.673 1.37337 2.5 1.37337H12V7.20671H19V19.7067H1ZM12.878 12.2067H11.675L10 14.2967L7.513 11.1942C8.388 10.8692 9 10.1384 9 9.29004C9 8.14171 7.878 7.20671 6.5 7.20671H4.5C3.673 7.20671 3 7.76754 3 8.45671V14.7067H4V11.3734H6.454L9.398 15.0475L7 18.04H8.203L10 15.7975L11.797 18.04H13L10.602 15.0475L12.878 12.2067ZM4 8.45671C4 8.22671 4.224 8.04004 4.5 8.04004H6.5C7.327 8.04004 8 8.60087 8 9.29004C8 9.97921 7.327 10.54 6.5 10.54H4V8.45671Z" fill="#749874"/>
</svg>
