<?xml version="1.0" encoding="UTF-8"?>
<svg id="Ebene_1" data-name="Ebene 1" viewBox="0 0 127.66 18.22" xmlns="http://www.w3.org/2000/svg">
 <defs>
  <style>.cls-1 {
        fill: #30463b;
      }</style>
 </defs>
 <path class="cls-1" d="M28.2,3.57l-1.14,4.54c-.09-.1-.17-.21-.28-.3-.55-.49-1.32-.73-2.32-.73s-1.91.24-2.76.73c-.85.48-1.58,1.15-2.2,1.98-.61.84-1.06,1.79-1.35,2.85-.28,1.05-.34,2-.18,2.85.16.84.53,1.51,1.12,2,.58.49,1.36.73,2.35.73s1.92-.25,2.74-.74c.26-.16.51-.34.75-.54l-.26.98h1.82l3.77-14.36h-2.05ZM26.08,12.64h0c-.2.73-.47,1.38-.81,1.94-.35.56-.77,1-1.28,1.32-.51.32-1.1.48-1.77.48s-1.15-.17-1.48-.5c-.34-.33-.54-.78-.6-1.34-.06-.56,0-1.19.19-1.89.19-.69.46-1.32.82-1.88s.81-1.01,1.33-1.34c.52-.33,1.13-.5,1.8-.5.64,0,1.12.16,1.45.47.33.31.52.75.57,1.31.05.56-.03,1.2-.22,1.93Z"/>
 <path class="cls-1" d="M37.69,7.57c-.61-.32-1.39-.48-2.34-.48-1.22,0-2.26.27-3.14.8-.88.53-1.56,1.25-2.07,2.16l1.75.59c.34-.59.78-1.02,1.31-1.27.53-.26,1.07-.39,1.63-.39.88,0,1.45.2,1.7.6.22.35.25.87.1,1.54-.41.06-.82.11-1.24.17-.68.09-1.33.19-1.95.29-.62.1-1.18.22-1.69.36-.59.18-1.1.41-1.55.69-.45.28-.82.63-1.12,1.03-.3.4-.52.87-.66,1.41-.15.57-.16,1.1-.02,1.58.14.48.44.86.89,1.15.45.29,1.07.43,1.85.43.98,0,1.87-.2,2.64-.59.58-.29,1.13-.71,1.64-1.23l-.41,1.53h1.81l1.74-6.49c.12-.44.21-.86.27-1.24.06-.38.06-.75-.02-1.09-.14-.7-.52-1.21-1.13-1.53ZM35.98,13.4c-.12.39-.28.74-.47,1.05-.17.35-.43.68-.76,1-.34.32-.75.58-1.22.79-.47.21-1,.31-1.58.31-.44,0-.78-.07-1.02-.21-.24-.14-.4-.32-.48-.55-.07-.23-.07-.48,0-.76.07-.28.2-.52.38-.71.18-.2.4-.36.65-.5.26-.14.54-.25.84-.35.36-.1.76-.19,1.21-.27.45-.07.94-.15,1.49-.23.35-.05.73-.11,1.13-.16-.05.17-.11.37-.18.59Z"/>
 <polygon class="cls-1" points="47.51 7.38 42.56 15.37 41.9 7.38 39.84 7.38 40.84 17.93 42.91 17.93 49.57 7.38"/>
 <polygon class="cls-1" points="50.54 7.38 47.72 17.93 49.76 17.93 52.59 7.38"/>
 <path class="cls-1" d="M52.29,5.55c.45,0,.84-.3.95-.73h0c.17-.64-.3-1.25-.95-1.25-.45,0-.84.3-.95.73h0c-.17.64.3,1.25.95,1.25Z"/>
 <path class="cls-1" d="M61.44,8.11c-.09-.1-.17-.21-.28-.3-.55-.49-1.32-.73-2.32-.73s-1.91.24-2.76.73c-.85.48-1.58,1.15-2.2,1.98-.61.84-1.06,1.79-1.35,2.85-.28,1.05-.34,2-.18,2.85.16.84.53,1.51,1.12,2,.58.49,1.36.73,2.35.73s1.92-.25,2.74-.74c.26-.16.51-.34.75-.54l-.26.98h1.82l3.77-14.36h-2.05l-1.14,4.54ZM60.46,12.64h0c-.2.73-.47,1.38-.81,1.94-.35.56-.77,1-1.28,1.32-.51.32-1.1.48-1.77.48s-1.15-.17-1.48-.5c-.34-.33-.54-.78-.6-1.34-.06-.56,0-1.19.19-1.89.18-.69.46-1.32.82-1.88s.81-1.01,1.33-1.34c.52-.33,1.13-.5,1.8-.5.64,0,1.12.16,1.45.47.33.31.52.75.57,1.31.05.56-.03,1.2-.22,1.93Z"/>
 <polygon class="cls-1" points="68.5 3.57 64.66 17.93 66.7 17.93 70.55 3.57"/>
 <path class="cls-1" d="M77.33,13.23h2.04c.42-1.26.56-2.35.43-3.27-.13-.92-.5-1.63-1.12-2.12-.62-.5-1.47-.75-2.54-.75s-1.99.23-2.89.69c-.9.46-1.68,1.12-2.34,1.96-.66.85-1.14,1.85-1.45,3-.29,1.09-.33,2.04-.11,2.87.22.82.66,1.47,1.33,1.92s1.53.69,2.57.69,2.02-.26,2.99-.78c.97-.52,1.79-1.25,2.45-2.19l-1.83-.63c-.41.54-.88.96-1.42,1.25-.54.29-1.13.43-1.77.43-.97,0-1.63-.32-1.97-.95-.28-.52-.33-1.23-.17-2.11h5.81ZM73.17,9.86c.69-.64,1.54-.97,2.56-.97.92,0,1.54.29,1.83.88.22.44.27,1.06.15,1.86h-5.71c.3-.73.69-1.33,1.17-1.78Z"/>
 <polygon class="cls-1" points="83.37 3.57 79.52 17.93 81.56 17.93 85.41 3.57"/>
 <path class="cls-1" d="M94.83,9.76c-.2-.83-.62-1.49-1.27-1.96-.65-.48-1.5-.71-2.55-.71s-2,.23-2.9.7c-.9.47-1.68,1.12-2.33,1.95-.65.84-1.13,1.81-1.42,2.91-.29,1.09-.34,2.06-.15,2.9.2.84.62,1.49,1.26,1.97.65.48,1.5.71,2.55.71s2.02-.24,2.92-.71c.9-.47,1.68-1.13,2.33-1.96.65-.84,1.12-1.81,1.42-2.91.29-1.09.34-2.05.14-2.88ZM92.52,12.64c-.29,1.07-.77,1.95-1.45,2.63-.68.68-1.52,1.02-2.53,1.02s-1.64-.33-1.97-1c-.33-.66-.35-1.55-.05-2.66.19-.72.47-1.35.83-1.89.36-.54.8-.97,1.33-1.28.53-.31,1.13-.46,1.81-.46,1,0,1.66.33,1.99.99.33.66.34,1.54.05,2.64Z"/>
 <path class="cls-1" d="M105.35,8.37c-.21-.38-.53-.69-.96-.92-.43-.23-1.01-.35-1.74-.35-.95,0-1.82.21-2.6.62-.48.25-.91.57-1.31.95l.34-1.28h-1.83l-2.83,10.55h2.07l1.47-5.49c.17-.63.38-1.16.64-1.59.26-.44.54-.79.86-1.05.32-.27.65-.46,1.01-.58.36-.12.72-.18,1.08-.18.56,0,.98.11,1.27.34.29.23.48.53.57.9.09.37.12.77.07,1.21-.05.43-.13.85-.24,1.26l-1.39,5.19h2.07l1.57-5.86c.09-.33.16-.7.22-1.13.06-.43.06-.87.02-1.32-.04-.45-.17-.86-.38-1.25Z"/>
 <path class="cls-1" d="M112.14,15.86c-.54.29-1.13.43-1.77.43-.97,0-1.63-.32-1.97-.95-.28-.52-.33-1.23-.17-2.11h7.85c.42-1.26.56-2.35.43-3.27-.13-.92-.5-1.63-1.12-2.12-.62-.5-1.47-.75-2.54-.75s-1.99.23-2.89.69c-.9.46-1.68,1.12-2.34,1.96-.66.85-1.14,1.85-1.45,3-.29,1.09-.33,2.04-.11,2.87.22.82.66,1.47,1.33,1.92.67.46,1.53.69,2.57.69s2.02-.26,2.99-.78c.97-.52,1.79-1.25,2.45-2.19l-1.83-.63c-.41.54-.88.96-1.42,1.25ZM109.87,9.86c.69-.64,1.54-.97,2.56-.97.92,0,1.54.29,1.83.88.22.44.27,1.06.15,1.86h-5.71c.3-.73.69-1.33,1.17-1.78Z"/>
 <polygon class="cls-1" points="127.66 7.38 125.06 7.38 119.56 12.46 121.87 3.57 119.8 3.57 116.02 17.93 118.1 17.93 119.46 12.85 122.51 17.93 125.29 17.93 121.87 12.65"/>
 <path class="cls-1" d="M14,3.85c.22.08.44.12.67.12,1.01,0,1.86-.76,1.97-1.78.1-.9-.45-1.77-1.3-2.07C15.12.04,14.89,0,14.66,0,13.65,0,12.8.77,12.69,1.78c-.1.9.45,1.77,1.31,2.07Z"/>
 <path class="cls-1" d="M18.53,6.6c-.17-.24-.46-.37-.75-.32-.13.02-.25.08-.36.16l-1.38,1.04c-.08.06-.16.09-.26.09-.12,0-.23-.05-.31-.14-1.03-1.12-2.77-3.04-2.81-3.08-.11-.12-.24-.23-.39-.33-.16-.1-.34-.19-.53-.27-.33-.12-.69-.18-1.07-.18-.13,0-.25,0-.38.02l-4.4.48c-.37.04-.69.26-.86.59,0,0-.78,1.45-1.35,2.52-.12.23-.14.51-.02.74.12.23.33.38.58.42.04,0,.07,0,.11,0,.27,0,.53-.15.67-.38l1.16-1.95c.06-.11.18-.19.31-.19l1.61-.05c.15,0,.29.08.37.21.08.13.08.28.02.42l-3.41,6.62c-.12.29-.34.54-.6.7l-3.97,2.4c-.38.23-.57.66-.48,1.05.1.43.48.74.92.74.16,0,.3-.04.44-.11l4.72-2.48c.3-.16.52-.4.66-.7l1.17-2.22c.1-.18.31-.28.52-.2.05.02.09.04.13.08l1.37,1.19c.08.07.13.15.15.23.04.16-.02.33-.16.43l-1.91,1.5c-.44.34-.57.93-.31,1.36.19.3.51.48.86.48.22,0,.43-.07.6-.2l3.26-2.6c.37-.3.59-.74.59-1.22v-2.52c0-.05-.04-.09-.09-.09h-.93c-.05,0-.09.04-.09.09v1.05c0,.1-.08.18-.18.18h-2.06c-.1,0-.18-.08-.18-.18v-1.6s.02-.09.05-.13l2.8-2.92s.08-.06.13-.06c.05,0,.09.02.13.05l2.44,2.32c.12.12.28.19.45.19.03,0,.06,0,.1,0,.11-.02.22-.07.32-.15l2.44-2.03c.31-.26.39-.72.16-1.05Z"/>
</svg>
