<?xml version="1.0" encoding="UTF-8"?>
<svg id="Ebene_1" data-name="Ebene 1" xmlns="http://www.w3.org/2000/svg" viewBox="0 0 60 57.57">
  <defs>
    <style>
      .cls-1 {
        fill: #30463b;
      }
    </style>
  </defs>
  <path class="cls-1" d="M44.99,12.38c.7.25,1.42.37,2.15.37,3.25,0,5.98-2.46,6.34-5.72.32-2.88-1.44-5.68-4.19-6.66-.7-.25-1.43-.38-2.16-.38-3.25,0-5.98,2.46-6.34,5.72-.32,2.88,1.45,5.68,4.2,6.66Z"/>
  <path class="cls-1" d="M59.57,21.22c-.54-.78-1.47-1.18-2.42-1.03-.42.06-.81.25-1.15.51l-4.42,3.35c-.24.18-.53.27-.83.27-.38,0-.75-.16-1-.45-3.3-3.61-8.91-9.77-9.04-9.91-.36-.39-.79-.74-1.25-1.05-.51-.34-1.08-.63-1.7-.86-1.06-.39-2.22-.58-3.45-.58-.41,0-.82.02-1.22.06l-14.14,1.55c-1.18.12-2.21.83-2.77,1.89,0,0-2.5,4.67-4.34,8.11-.4.74-.44,1.64-.06,2.38s1.06,1.22,1.87,1.33c.12.02.23.02.35.02.87,0,1.69-.47,2.14-1.22l3.74-6.27c.21-.36.59-.6,1-.61l5.17-.15c.49,0,.93.25,1.18.66.25.41.27.92.05,1.35l-10.96,21.27c-.39.95-1.08,1.75-1.94,2.26l-12.75,7.72c-1.21.73-1.85,2.11-1.55,3.36.32,1.39,1.54,2.36,2.97,2.36.5,0,.98-.12,1.41-.35l15.18-7.97c.95-.5,1.69-1.28,2.14-2.26l3.77-7.14c.31-.59,1.01-.89,1.69-.65.15.05.3.14.42.25l4.42,3.81c.25.21.41.47.47.74.12.53-.08,1.06-.5,1.39l-6.15,4.82c-1.4,1.11-1.82,2.99-.99,4.37.6.97,1.64,1.55,2.78,1.55.71,0,1.38-.22,1.94-.64l10.47-8.36c1.2-.95,1.89-2.38,1.89-3.91v-8.1c0-.16-.13-.3-.3-.3h-2.99c-.16,0-.3.13-.3.3v3.39c0,.33-.27.59-.59.59h-6.61c-.33,0-.59-.27-.59-.59v-5.13c0-.15.06-.3.17-.41l9.01-9.4c.11-.12.27-.18.43-.18s.3.06.41.16l7.84,7.44c.38.39.9.6,1.45.6.1,0,.21,0,.31-.02.36-.05.71-.22,1.03-.48l7.83-6.52c1-.83,1.26-2.3.52-3.37Z"/>
</svg>